<svg width="182" height="39" viewBox="0 0 182 39" fill="none" xmlns="http://www.w3.org/2000/svg">
<path d="M6.76 32C6.09333 32 5.12 32 3.84 32C2.58667 32 1.73333 31.9067 1.28 31.72C0.826667 31.5333 0.6 31.24 0.6 30.84V5.6C0.6 4.98667 1.41333 4.50667 3.04 4.16C4.69333 3.78667 6.45333 3.6 8.32 3.6C10.1867 3.6 11.52 3.84 12.32 4.32C13.12 4.8 13.5867 5.30667 13.72 5.84L16.44 16.4H16.8L19.36 6.32C19.5467 5.6 20.4133 4.97333 21.96 4.44C23.5333 3.88 25.2533 3.6 27.12 3.6C28.9867 3.6 30.36 3.74666 31.24 4.04C32.1467 4.33333 32.6 4.70667 32.6 5.16V30.84C32.6 31.1867 31.84 31.4667 30.32 31.68C28.8 31.8933 26.9467 32 24.76 32C22.5733 32 21.48 31.6133 21.48 30.84C21.48 28.7333 21.7067 24.9867 22.16 19.6H21.8L19.72 30.04C19.64 30.44 19.3067 30.7333 18.72 30.92C18.16 31.1067 17.3067 31.2 16.16 31.2C15.0133 31.2 14.3067 31.12 14.04 30.96C13.8 30.8 13.64 30.4933 13.56 30.04L11.4 19.6H11.04C11.52 25.0933 11.76 28.84 11.76 30.84C11.76 31.5333 10.0933 31.92 6.76 32ZM47.9153 32.36C45.9153 32.36 44.1953 32.1867 42.7553 31.84C41.3153 31.4933 40.0086 30.88 38.8353 30C36.4086 28.24 35.1953 24.96 35.1953 20.16C35.1953 15.8933 36.4353 12.84 38.9153 11C41.2353 9.29333 44.2353 8.44 47.9153 8.44C49.4886 8.44 50.8353 8.52 51.9553 8.68C53.0753 8.81333 54.2086 9.12 55.3553 9.6C56.5286 10.08 57.462 10.7333 58.1553 11.56C58.8753 12.3867 59.462 13.5333 59.9153 15C60.3686 16.44 60.5953 18.16 60.5953 20.16C60.5953 24.2133 59.4486 27.2667 57.1553 29.32C54.862 31.3467 51.782 32.36 47.9153 32.36ZM46.5153 24.56C46.702 25.52 46.8886 26.0933 47.0753 26.28C47.2886 26.4667 47.5553 26.56 47.8753 26.56C48.222 26.56 48.4886 26.4667 48.6753 26.28C48.8886 26.0933 49.0753 25.52 49.2353 24.56C49.422 23.6 49.5153 22.4 49.5153 20.96C49.5153 19.4933 49.4753 18.3733 49.3953 17.6C49.342 16.8 49.262 16.1867 49.1553 15.76C49.0753 15.3333 48.9553 15 48.7953 14.76C48.5553 14.4133 48.262 14.24 47.9153 14.24C47.5953 14.24 47.3286 14.3467 47.1153 14.56C46.902 14.7467 46.702 15.3333 46.5153 16.32C46.3286 17.28 46.2353 18.6533 46.2353 20.44C46.2353 22.2267 46.3286 23.6 46.5153 24.56ZM61.7781 11.64C61.7781 11.3733 62.1648 11.0267 62.9381 10.6C63.7115 10.1467 64.7648 9.73333 66.0981 9.36C67.4315 8.98666 68.7381 8.8 70.0181 8.8C72.6048 8.8 73.9381 9.42666 74.0181 10.68L75.0181 23.4H75.5381L76.4181 11.32C76.4715 10.6533 77.3915 10.0667 79.1781 9.56C80.9648 9.05333 82.5381 8.8 83.8981 8.8C85.2581 8.8 86.2715 8.92 86.9381 9.16C87.6315 9.4 88.0715 9.65333 88.2581 9.92C88.4448 10.16 88.5381 10.3733 88.5381 10.56C88.5381 10.7467 87.9648 12.12 86.8181 14.68C85.6981 17.24 83.4448 22.6933 80.0581 31.04C79.7915 31.68 77.6181 32 73.5381 32C72.2581 32 71.4181 31.9333 71.0181 31.8C70.6181 31.64 70.3515 31.3867 70.2181 31.04C68.3781 26.4 66.5115 22.04 64.6181 17.96C62.7248 13.8533 61.7781 11.7467 61.7781 11.64ZM101.127 11.32V31.04C101.127 31.3333 100.353 31.5733 98.8066 31.76C97.2866 31.92 95.7132 32 94.0866 32C92.4866 32 91.4466 31.9333 90.9666 31.8C90.5132 31.64 90.2866 31.3867 90.2866 31.04V12.04C90.2866 11.4533 91.0332 10.88 92.5266 10.32C94.0466 9.73333 95.6999 9.44 97.4866 9.44C99.9132 9.44 101.127 10.0667 101.127 11.32ZM95.6866 0.799999C97.4466 0.799999 98.8199 1.06667 99.8066 1.6C100.82 2.10666 101.327 3.04 101.327 4.4C101.327 6.8 99.4599 8 95.7266 8C91.9932 8 90.1266 6.8 90.1266 4.4C90.1266 2 91.9799 0.799999 95.6866 0.799999ZM124.591 32H107.631C106.324 32 105.444 31.9067 104.991 31.72C104.538 31.5333 104.311 31.24 104.311 30.84V5.52C104.311 4.82667 104.618 4.33333 105.231 4.04C105.871 3.74666 107.004 3.6 108.631 3.6H124.711C125.271 3.6 125.551 4.53333 125.551 6.4C125.551 8.24 125.431 9.65333 125.191 10.64C124.951 11.6 124.631 12.08 124.231 12.08C122.498 12.08 119.578 11.9067 115.471 11.56V14.24C119.418 14.08 121.991 14 123.191 14C123.911 14 124.271 14.84 124.271 16.52C124.271 18.2 124.124 19.48 123.831 20.36C123.564 21.2133 123.191 21.64 122.711 21.64L115.471 21.48V24.04C120.111 23.6933 123.311 23.52 125.071 23.52C125.631 23.52 125.911 24.4533 125.911 26.32C125.911 28.1867 125.791 29.6 125.551 30.56C125.311 31.52 124.991 32 124.591 32ZM139.885 30.84C139.885 31.1867 139.058 31.4667 137.405 31.68C135.778 31.8933 134.152 32 132.525 32C130.898 32 129.858 31.9067 129.405 31.72C128.952 31.5333 128.725 31.24 128.725 30.84V6.28C128.725 5.61333 129.485 5 131.005 4.44C132.552 3.88 134.298 3.6 136.245 3.6C136.938 3.6 137.458 3.62667 137.805 3.68C138.712 3.81333 139.352 4.38667 139.725 5.4L143.565 15.72H143.725V6.28C143.725 5.61333 144.485 5 146.005 4.44C147.525 3.88 149.258 3.6 151.205 3.6C152.885 3.6 153.952 3.92 154.405 4.56C154.725 5.01333 154.885 5.42667 154.885 5.8V30.84C154.885 31.1867 154.058 31.4667 152.405 31.68C150.778 31.8933 148.978 32 147.005 32C145.058 32 143.992 31.7467 143.805 31.24L140.085 21.4H139.885V30.84ZM171.26 29.36V27.04H170.94C170.833 27.1733 170.647 27.3467 170.38 27.56C170.113 27.7467 169.447 28.0133 168.38 28.36C167.34 28.7067 166.153 28.88 164.82 28.88C163.513 28.88 162.407 28.68 161.5 28.28C160.593 27.88 159.887 27.3867 159.38 26.8C158.873 26.1867 158.473 25.3733 158.18 24.36C157.727 22.7867 157.5 20.6533 157.5 17.96C157.5 14.8667 158.153 12.4933 159.46 10.84C159.967 10.1733 160.713 9.61333 161.7 9.16C162.713 8.68 163.793 8.44 164.94 8.44C166.087 8.44 167.033 8.57333 167.78 8.84C168.527 9.08 169.087 9.37333 169.46 9.72C170.207 10.4667 170.633 11.12 170.74 11.68L170.78 12.04H171.1L171.46 10.48C171.727 9.36 173.833 8.8 177.78 8.8C179.54 8.8 180.607 9.06667 180.98 9.6C181.193 9.92 181.327 10.2267 181.38 10.52C181.433 10.7867 181.46 11.2 181.46 11.76V28.52C181.46 31.6667 180.433 34.0667 178.38 35.72C176.327 37.3733 173.313 38.2 169.34 38.2C165.127 38.2 162.26 37.7867 160.74 36.96C160.073 36.5867 159.74 36.2 159.74 35.8C159.74 35.16 159.993 34.08 160.5 32.56C161.033 31.04 161.527 30.28 161.98 30.28C162.087 30.28 162.46 30.3733 163.1 30.56C165.127 31.0933 166.767 31.36 168.02 31.36C169.3 31.36 170.153 31.2 170.58 30.88C171.033 30.56 171.26 30.0533 171.26 29.36ZM169.66 24.32C169.953 24.32 170.193 24.2133 170.38 24C170.567 23.7867 170.66 23.5467 170.66 23.28V15.04C170.553 14.48 170.26 14.2 169.78 14.2C168.767 14.2 168.26 15.8667 168.26 19.2C168.26 20.7467 168.38 21.9867 168.62 22.92C168.887 23.8533 169.233 24.32 169.66 24.32Z" fill="#FF6767"/>
</svg>
