<svg width="214" height="38" viewBox="0 0 214 38" fill="none" xmlns="http://www.w3.org/2000/svg">
<path d="M0.8 29V0.399999H6.16L19.4 9.68H19.6L32.84 0.399999H38.2V29H31.8V8.4L22.72 14.48V29H16.32V14.48L7.2 8.4V29H0.8ZM53.7678 29.2C50.1945 29.2 47.4078 28.32 45.4078 26.56C43.4078 24.7733 42.4078 22.16 42.4078 18.72C42.4078 15.2533 43.4078 12.64 45.4078 10.88C47.4078 9.09333 50.1945 8.2 53.7678 8.2H61.1678C64.7411 8.2 67.5278 9.09333 69.5278 10.88C71.5278 12.64 72.5278 15.2533 72.5278 18.72C72.5278 22.16 71.5278 24.7733 69.5278 26.56C67.5278 28.32 64.7411 29.2 61.1678 29.2H53.7678ZM53.7678 24.6H61.1678C62.9011 24.6 64.2211 24.12 65.1278 23.16C66.0611 22.2 66.5278 20.72 66.5278 18.72C66.5278 16.6933 66.0611 15.2 65.1278 14.24C64.2211 13.28 62.9011 12.8 61.1678 12.8H53.7678C52.0345 12.8 50.7011 13.28 49.7678 14.24C48.8611 15.2 48.4078 16.6933 48.4078 18.72C48.4078 20.72 48.8611 22.2 49.7678 23.16C50.7011 24.12 52.0345 24.6 53.7678 24.6ZM82.6269 29L73.9469 8.4H80.0269L86.7469 24.36H88.7469L95.4669 8.4H101.547L92.8669 29H82.6269ZM104.145 29V8.4H109.945V29H104.145ZM104.105 5V0.479998H109.985V5H104.105ZM114.941 29V0.399999H146.301V5.6H121.341V11.92H143.981V17.12H121.341V23.8H146.301V29H114.941ZM150.683 29V0.399999H157.163L177.403 20.96V0.399999H183.803V29H177.323L157.083 8.4V29H150.683ZM193.674 38V33.4H205.754C207.354 33.4 208.154 32.5867 208.154 30.96V29H199.354C195.78 29 192.994 28.12 190.994 26.36C188.994 24.6 187.994 22.0533 187.994 18.72C187.994 15.36 188.994 12.8 190.994 11.04C192.994 9.28 195.78 8.4 199.354 8.4H213.954V31.68C213.954 33.5733 213.407 35.0933 212.314 36.24C211.22 37.4133 209.514 38 207.194 38H193.674ZM199.354 24.4H208.154V13H199.354C197.62 13 196.287 13.48 195.354 14.44C194.447 15.3733 193.994 16.8 193.994 18.72C193.994 20.6133 194.447 22.04 195.354 23C196.287 23.9333 197.62 24.4 199.354 24.4Z" fill="#332C2C"/>
</svg>
